# xmcd
#
# Track frame offsets:
#	150
#	23236
#	40571
#	60167
#	71850
#	88180
#	104910
#	118043
#	137673
#	151288
#	165626
#	185042
#	199846
#	214401
#	229519
#	245683
#	266578
#	284039
#	305914
#	324025
#	342438
#
# Disc length: 4781 seconds
#
# Revision: 0
# Processed by: cddbd v1.5.1PL0 Copyright (c) Steve Scherf et al.
# Submitted via: dBpowerAMP V4.0
#
DISCID=4212ab15
DTITLE=пасвакгс теяфгс - жытиа стис мувтес
DYEAR=1900
DGENRE=Country
TTITLE0=амгсувы
TTITLE1=паяастяатгла
TTITLE2=жеццаяи лоу вкыло
TTITLE3=дийаиыла лоу
TTITLE4=ежтаинес
TTITLE5=евеи ема жеццаяи апоье
TTITLE6=жытиа стис мувтес
TTITLE7=се вяеиастгйа
TTITLE8=оуяамос выяис жеццаяи
TTITLE9=та сгладиа
TTITLE10=летамастгс
TTITLE11=ецы тгм алаятиа лоу тг кеы
TTITLE12=лгм тгм пеис аутг тг кенг
TTITLE13=лиа ьувг
TTITLE14=ста сйотеима паяапаты
TTITLE15=та латиа йкеимы
TTITLE16=айолг епилемы
TTITLE17=немгтиа лоу
TTITLE18=том гкио ма'ва
TTITLE19=о,ти поку ацапгса
TTITLE20=себас вамоул
EXTD=жытиа стис мувтес
EXTT0=
EXTT1=
EXTT2=
EXTT3=
EXTT4=
EXTT5=
EXTT6=
EXTT7=
EXTT8=
EXTT9=
EXTT10=
EXTT11=
EXTT12=
EXTT13=
EXTT14=
EXTT15=
EXTT16=
EXTT17=
EXTT18=
EXTT19=
EXTT20=
PLAYORDER=
